<mxfile host="app.diagrams.net" modified="2023-12-23T16:50:34.729Z" agent="Mozilla/5.0 (Windows NT 10.0; Win64; x64) AppleWebKit/537.36 (KHTML, like Gecko) Chrome/120.0.0.0 Safari/537.36" etag="nNb-34MXDBJP31z2J5VP" version="22.1.11" type="device">
  <diagram name="Page-1" id="RmGGQPF-_ZepywjVO7-p">
    <mxGraphModel dx="1647" dy="890" grid="1" gridSize="10" guides="1" tooltips="1" connect="1" arrows="1" fold="1" page="1" pageScale="1" pageWidth="827" pageHeight="2100" math="0" shadow="0">
      <root>
        <mxCell id="0" />
        <mxCell id="1" parent="0" />
        <mxCell id="ZKyBboaU_x4AYe3qYNUk-1" value="&lt;font style=&quot;font-size: 16px;&quot;&gt;Main Menu Screen&lt;/font&gt;" style="html=1;whiteSpace=wrap;" vertex="1" parent="1">
          <mxGeometry x="330" y="40" width="110" height="50" as="geometry" />
        </mxCell>
        <mxCell id="ZKyBboaU_x4AYe3qYNUk-2" value="&lt;font style=&quot;font-size: 16px;&quot;&gt;Column&lt;/font&gt;" style="html=1;whiteSpace=wrap;" vertex="1" parent="1">
          <mxGeometry x="330" y="360" width="110" height="50" as="geometry" />
        </mxCell>
        <mxCell id="ZKyBboaU_x4AYe3qYNUk-8" value="&lt;font style=&quot;font-size: 16px;&quot;&gt;Padding&lt;/font&gt;" style="html=1;whiteSpace=wrap;" vertex="1" parent="1">
          <mxGeometry x="270" y="500" width="110" height="50" as="geometry" />
        </mxCell>
        <mxCell id="ZKyBboaU_x4AYe3qYNUk-13" value="&lt;font style=&quot;font-size: 16px;&quot;&gt;Background&lt;/font&gt;" style="html=1;whiteSpace=wrap;" vertex="1" parent="1">
          <mxGeometry x="330" y="200" width="110" height="50" as="geometry" />
        </mxCell>
        <mxCell id="ZKyBboaU_x4AYe3qYNUk-14" value="&lt;font style=&quot;font-size: 16px;&quot;&gt;Other children&lt;/font&gt;" style="html=1;whiteSpace=wrap;" vertex="1" parent="1">
          <mxGeometry x="450" y="500" width="340" height="60" as="geometry" />
        </mxCell>
        <mxCell id="ZKyBboaU_x4AYe3qYNUk-16" value="&lt;font style=&quot;font-size: 20px;&quot;&gt;Context&lt;br&gt;&lt;/font&gt;" style="html=1;verticalAlign=bottom;endArrow=open;dashed=1;endSize=8;curved=0;rounded=0;entryX=0.75;entryY=0;entryDx=0;entryDy=0;exitX=0.75;exitY=1;exitDx=0;exitDy=0;" edge="1" parent="1">
          <mxGeometry x="0.6364" relative="1" as="geometry">
            <mxPoint x="384.5" y="90" as="sourcePoint" />
            <mxPoint x="384.5" y="200" as="targetPoint" />
            <mxPoint as="offset" />
          </mxGeometry>
        </mxCell>
        <mxCell id="ZKyBboaU_x4AYe3qYNUk-18" value="&lt;font style=&quot;font-size: 20px;&quot;&gt;Context&lt;br&gt;&lt;/font&gt;" style="html=1;verticalAlign=bottom;endArrow=open;dashed=1;endSize=8;curved=0;rounded=0;entryX=0.75;entryY=0;entryDx=0;entryDy=0;exitX=0.75;exitY=1;exitDx=0;exitDy=0;" edge="1" parent="1">
          <mxGeometry x="0.6364" relative="1" as="geometry">
            <mxPoint x="384.5" y="250" as="sourcePoint" />
            <mxPoint x="384.5" y="360" as="targetPoint" />
            <mxPoint as="offset" />
          </mxGeometry>
        </mxCell>
        <mxCell id="ZKyBboaU_x4AYe3qYNUk-19" value="&lt;font style=&quot;font-size: 20px;&quot;&gt;Size&lt;/font&gt;" style="html=1;verticalAlign=bottom;endArrow=open;dashed=1;endSize=8;curved=0;rounded=0;entryX=0.25;entryY=1;entryDx=0;entryDy=0;exitX=0.25;exitY=0;exitDx=0;exitDy=0;" edge="1" parent="1" source="ZKyBboaU_x4AYe3qYNUk-8" target="ZKyBboaU_x4AYe3qYNUk-2">
          <mxGeometry x="0.0909" relative="1" as="geometry">
            <mxPoint x="367" y="370" as="sourcePoint" />
            <mxPoint x="367" y="260" as="targetPoint" />
            <mxPoint as="offset" />
          </mxGeometry>
        </mxCell>
        <mxCell id="ZKyBboaU_x4AYe3qYNUk-20" value="&lt;font style=&quot;font-size: 20px;&quot;&gt;Context&lt;br&gt;&lt;/font&gt;" style="html=1;verticalAlign=bottom;endArrow=open;dashed=1;endSize=8;curved=0;rounded=0;entryX=0.75;entryY=0;entryDx=0;entryDy=0;exitX=0.75;exitY=1;exitDx=0;exitDy=0;" edge="1" parent="1" source="ZKyBboaU_x4AYe3qYNUk-2" target="ZKyBboaU_x4AYe3qYNUk-8">
          <mxGeometry x="0.6364" relative="1" as="geometry">
            <mxPoint x="422" y="260" as="sourcePoint" />
            <mxPoint x="422" y="370" as="targetPoint" />
            <mxPoint as="offset" />
          </mxGeometry>
        </mxCell>
        <mxCell id="ZKyBboaU_x4AYe3qYNUk-21" value="&lt;font style=&quot;font-size: 16px;&quot;&gt;New Game Button&lt;br&gt;&lt;/font&gt;" style="html=1;whiteSpace=wrap;" vertex="1" parent="1">
          <mxGeometry x="270" y="660" width="110" height="50" as="geometry" />
        </mxCell>
        <mxCell id="ZKyBboaU_x4AYe3qYNUk-22" value="&lt;font style=&quot;font-size: 20px;&quot;&gt;Size&lt;/font&gt;" style="html=1;verticalAlign=bottom;endArrow=open;dashed=1;endSize=8;curved=0;rounded=0;entryX=0.25;entryY=1;entryDx=0;entryDy=0;exitX=0.25;exitY=0;exitDx=0;exitDy=0;" edge="1" parent="1">
          <mxGeometry x="0.0909" relative="1" as="geometry">
            <mxPoint x="297" y="660" as="sourcePoint" />
            <mxPoint x="297" y="550" as="targetPoint" />
            <mxPoint as="offset" />
          </mxGeometry>
        </mxCell>
        <mxCell id="ZKyBboaU_x4AYe3qYNUk-23" value="&lt;font style=&quot;font-size: 20px;&quot;&gt;Context&lt;br&gt;&lt;/font&gt;" style="html=1;verticalAlign=bottom;endArrow=open;dashed=1;endSize=8;curved=0;rounded=0;entryX=0.75;entryY=0;entryDx=0;entryDy=0;exitX=0.75;exitY=1;exitDx=0;exitDy=0;" edge="1" parent="1">
          <mxGeometry x="0.6364" relative="1" as="geometry">
            <mxPoint x="352" y="550" as="sourcePoint" />
            <mxPoint x="352" y="660" as="targetPoint" />
            <mxPoint as="offset" />
          </mxGeometry>
        </mxCell>
        <mxCell id="ZKyBboaU_x4AYe3qYNUk-24" value="&lt;font style=&quot;font-size: 20px;&quot;&gt;Size&lt;/font&gt;" style="html=1;verticalAlign=bottom;endArrow=open;dashed=1;endSize=8;curved=0;rounded=0;entryX=1;entryY=1;entryDx=0;entryDy=0;exitX=0.25;exitY=0;exitDx=0;exitDy=0;" edge="1" parent="1" source="ZKyBboaU_x4AYe3qYNUk-14" target="ZKyBboaU_x4AYe3qYNUk-2">
          <mxGeometry x="0.0909" relative="1" as="geometry">
            <mxPoint x="660" y="410" as="sourcePoint" />
            <mxPoint x="660" y="300" as="targetPoint" />
            <mxPoint as="offset" />
          </mxGeometry>
        </mxCell>
        <mxCell id="ZKyBboaU_x4AYe3qYNUk-25" value="&lt;font style=&quot;font-size: 20px;&quot;&gt;Context&lt;br&gt;&lt;/font&gt;" style="html=1;verticalAlign=bottom;endArrow=open;dashed=1;endSize=8;curved=0;rounded=0;exitX=1;exitY=0.25;exitDx=0;exitDy=0;" edge="1" parent="1" source="ZKyBboaU_x4AYe3qYNUk-2" target="ZKyBboaU_x4AYe3qYNUk-14">
          <mxGeometry x="0.6364" relative="1" as="geometry">
            <mxPoint x="715" y="300" as="sourcePoint" />
            <mxPoint x="715" y="410" as="targetPoint" />
            <mxPoint as="offset" />
          </mxGeometry>
        </mxCell>
      </root>
    </mxGraphModel>
  </diagram>
</mxfile>
